<svg xmlns="http://www.w3.org/2000/svg" viewBox="-3 -3 192 192">
    <defs>
        <style>.cls-0{fill:#ffffff;stroke:#676868;stroke-width:5}.cls-1{fill:#3849ca;}.cls-2{fill:#52c9ec;}.cls-3{fill:#ff4c10;}.cls-4{fill:#78e7e8;}</style>
    </defs>
    <title>enosix app builder component icon</title>
    <rect class="cls-0" width="186.06" height="186.06" rx="28.96"/>
    <path class="cls-1" d="M148.26,16.82,140,8.54a122.11,122.11,0,0,0-30.3,50.35q-1.55,5-2.66,10.18a118.16,118.16,0,0,0-1.89,12,117,117,0,0,0-.17,24A118.8,118.8,0,0,1,117,107C112.68,73.84,123.93,41.15,148.26,16.82Z"/>
    <path class="cls-1" d="M162.93,31.45l-8.27-8.28a99,99,0,0,0-27.47,86.52,119.75,119.75,0,0,1,12.95,4.8A87.28,87.28,0,0,1,162.93,31.45Z"/>
    <path class="cls-1" d="M177.52,46.09l-8.23-8.29A78.23,78.23,0,0,0,151.13,120a122.35,122.35,0,0,1,26.33,20,66.4,66.4,0,0,1,0-93.89Z"/>
    <path class="cls-2" d="M151.13,120a121.31,121.31,0,0,0-24-10.31q-5-1.56-10.16-2.66A120.89,120.89,0,0,0,81,105a118.75,118.75,0,0,1-1.81,12c33.13-4.24,65.74,7,90,31.3l8.28-8.28A122.38,122.38,0,0,0,151.13,120Z"/>
    <path class="cls-2" d="M76.56,127.1a116.87,116.87,0,0,1-4.79,13,87.23,87.23,0,0,1,82.84,22.88l8.28-8.27A99,99,0,0,0,76.56,127.1Z"/>
    <path class="cls-2" d="M66.19,151.13a123.26,123.26,0,0,1-20.11,26.33,66.49,66.49,0,0,1,93.9,0l8.28-8.27A78.21,78.21,0,0,0,66.19,151.13Z"/>
    <path class="cls-3" d="M81.11,81.12a116,116,0,0,1-12-1.88c4.21,33.11-7.08,65.78-31.31,90l8.28,8.28a123.56,123.56,0,0,0,20.11-26.34,119.91,119.91,0,0,0,5.58-11.1,116,116,0,0,0,4.79-12.94c1-3.34,1.94-6.72,2.67-10.14A118.75,118.75,0,0,0,81,105,117.54,117.54,0,0,0,81.11,81.12Z"/>
    <path class="cls-3" d="M59,76.66A117.86,117.86,0,0,1,46,71.83a87.23,87.23,0,0,1-22.85,82.8l8.28,8.3A99,99,0,0,0,59,76.66Z"/>
    <path class="cls-3" d="M34.93,66.23A124.65,124.65,0,0,1,8.54,46.09a66.46,66.46,0,0,1,0,93.89l8.28,8.28A78.2,78.2,0,0,0,34.93,66.23Z"/>
    <path class="cls-4" d="M93,70C64.66,70,37.6,58.56,16.86,37.8L8.54,46.09A124.65,124.65,0,0,0,34.93,66.23,121.09,121.09,0,0,0,46,71.82,119.21,119.21,0,0,0,59,76.66c3.32,1,6.69,1.86,10.14,2.58a116,116,0,0,0,12,1.88,113.78,113.78,0,0,0,11.81.61H93q6.06,0,12.09-.63a118.19,118.19,0,0,1,1.9-12A110.9,110.9,0,0,1,93,70Z"/>
    <path class="cls-4" d="M93.3,28H93A65.93,65.93,0,0,1,46.08,8.54L37.8,16.82A77.55,77.55,0,0,0,93,39.69h.33A77.82,77.82,0,0,0,120,34.88,122.65,122.65,0,0,1,140,8.54,66,66,0,0,1,93.3,28Z"/>
    <path class="cls-4" d="M93,48.68A86.44,86.44,0,0,1,31.43,23.17l-8.27,8.28A98.09,98.09,0,0,0,93,60.39h.32a99.56,99.56,0,0,0,16.35-1.45A120.93,120.93,0,0,1,114.47,46a87.92,87.92,0,0,1-21.18,2.72Z"/>
</svg>